<?xml version="1.0" encoding="utf-8"?>
<!-- Generator: Adobe Illustrator 27.1.1, SVG Export Plug-In . SVG Version: 6.00 Build 0)  -->
<svg version="1.1" id="Layer_1" xmlns="http://www.w3.org/2000/svg" xmlns:xlink="http://www.w3.org/1999/xlink" x="0px" y="0px"
	 viewBox="0 0 151.9 132.9" style="enable-background:new 0 0 151.9 132.9;" xml:space="preserve">
<style type="text/css">
	.st0{fill:#4D4D4D;}
</style>
<g>
	<path class="st0" d="M53.2,121.8c0-7.8,0-15.8,0-23.8c-3.6-0.7-7-1.4-10.4-2.2c-11-2.7-21.6-6.6-30.7-13.7
		C7.1,78.3,2.9,73.6,1,67.4c-2.3-8,0.2-14.8,5.5-20.8c5.1-5.9,11.7-9.8,18.7-13c11.9-5.4,24.6-8.1,37.5-9.2
		c13.3-1.2,26.5-0.7,39.6,1.8c13.5,2.6,26.5,6.7,37.6,15.3c5,3.9,9.1,8.5,10.9,14.7c1.8,6.1,0.7,11.7-2.7,17
		c-3.4,5.4-8.3,9.4-13.7,12.6c-8.3,5.1-17.4,8.2-26.8,10.4c-0.4,0.1-0.8,0-1.3,0.1c0-5.1-0.1-10.4-0.1-15.5c3.1-0.7,6.3-1.4,9.4-2.5
		c5.8-2,11.5-4.2,16.2-8.2c1.4-1.2,2.7-2.7,3.6-4.3c1.3-2.3,1.7-5.1,0.5-7.9c-1.1-2.8-3.9-5.4-6.1-7c-8.5-5.7-16.2-7.5-25.5-9.5
		c-22.5-4.1-45.8-3.4-66,2.3c-6.3,1.9-13,4.6-18.2,8.8c-1.6,1.5-3,3.1-3.9,4.9c-1.7,4.1-0.7,6.7,0.8,9.1c1.7,2.8,4.5,4.7,7.2,6.4
		c9.3,5.3,18.9,7.4,29,9.1c0-6.8,0-13.3,0-19.8c9.9,10,19.9,20,29.7,29.8C73.2,101.9,63.2,111.8,53.2,121.8z"/>
</g>
</svg>
