<?xml version="1.0" encoding="utf-8"?>
<!-- Generator: Adobe Illustrator 27.1.1, SVG Export Plug-In . SVG Version: 6.00 Build 0)  -->
<svg version="1.1" id="Layer_1" xmlns="http://www.w3.org/2000/svg" xmlns:xlink="http://www.w3.org/1999/xlink" x="0px" y="0px"
	 viewBox="0 0 151.9 132.9" style="enable-background:new 0 0 151.9 132.9;" xml:space="preserve">
<style type="text/css">
	.st0{opacity:5.000000e-02;enable-background:new    ;}
	.st1{opacity:0.1;enable-background:new    ;}
	.st2{fill:#4D4D4F;stroke:#4D4D4F;stroke-width:2.637;stroke-miterlimit:10;}
</style>
<path class="st0" d="M34,108.3l29.6,16.2l3.8-6.1l-30.5-16.6L34,108.3z"/>
<path class="st0" d="M20.9,97.6V39.8h7.2v57.8H20.9z"/>
<path class="st1" d="M74.6,125.7V67.9h7.2v57.8H74.6z"/>
<path class="st0" d="M128.1,99.5V41.7h7.2v57.8H128.1z"/>
<path class="st0" d="M36,23.9L64,8.2l4,6.1L38.4,30.7L36,23.9z"/>
<path class="st0" d="M92.9,8.5l28.5,16l-5,5.5l-29-16.2L92.9,8.5z"/>
<path class="st0" d="M33.5,43l3.4-6.1l33.6,18.4l-4.4,5.6L33.5,43z"/>
<path class="st0" d="M87,54.5l30.3-16.6l3.8,6.2L90.6,60.7L87,54.5z"/>
<path class="st0" d="M87.6,119.1l29.5-16.2l3.7,6.2l-29.4,16.1L87.6,119.1z"/>
<g>
	<path class="st2" d="M129.4,80.7v17l-13.3,7.3c-0.7,0.4-1.2,1.2-1.2,2c0,1.7,1.9,2.8,3.4,2l13.3-7.3l2.4-1.3V80.7
		c0-1.7-1.9-2.8-3.4-2C129.9,79.1,129.4,79.9,129.4,80.7z"/>
	<path class="st2" d="M26.8,97.7v-17c0-0.8-0.5-1.6-1.2-2c-1.5-0.8-3.4,0.3-3.4,2v19.7l2.4,1.3l13.3,7.3c1.5,0.8,3.4-0.3,3.4-2
		c0-0.8-0.5-1.6-1.2-2L26.8,97.7z"/>
	<path class="st2" d="M80.5,124.5v-13.7c0-1.3-1-2.3-2.3-2.3h-0.1c-1.3,0-2.3,1-2.3,2.3v13.7l-11.1-6.1c-1.5-0.8-3.4,0.3-3.4,2
		c0,0.8,0.5,1.6,1.2,2l15.6,8.5l15.6-8.5c0.7-0.4,1.2-1.2,1.2-2c0-1.7-1.9-2.8-3.4-2L80.5,124.5z"/>
	<path class="st2" d="M126.8,34.3l-9.6,5.3c-1.2,0.6-1.5,2.2-0.8,3.3c0.7,1,2,1.3,3,0.7l10.1-5.5v14.7c0,1.7,1.8,2.8,3.4,2
		c0.7-0.4,1.2-1.2,1.2-2V35.9v-0.1v-0.1v-2.6l-2.3-1.3l-0.2-0.1l-13.2-7.4c-0.7-0.4-1.5-0.4-2.2,0c-1.6,0.9-1.6,3.1,0,4L126.8,34.3z
		"/>
	<path class="st2" d="M93.1,55.5c-0.6-1.2-2-1.7-3.2-1L78.1,61l-11.8-6.5c-1.2-0.6-2.6-0.2-3.2,1c-0.5,1.1-0.1,2.4,1,3l11.7,6.4v16
		c0,1.3,1,2.3,2.3,2.3s2.3-1,2.3-2.3v-16L92,58.5C93.2,57.9,93.6,56.6,93.1,55.5z"/>
	<path class="st2" d="M78.1,7.1l12.7,7.1c0.7,0.4,1.5,0.4,2.2,0c1.6-0.9,1.6-3.1,0-4L80.3,3.1l-2.2-1.2l-2.2,1.2l-12.7,7.1
		c-1.6,0.9-1.6,3.1,0,4c0.7,0.4,1.5,0.4,2.2,0L78.1,7.1z"/>
	<path class="st2" d="M29.4,34.3l9.6,5.3c1.2,0.6,1.5,2.2,0.8,3.3c-0.7,1-2,1.3-3,0.7l-10-5.6v14.7c0,1.7-1.8,2.8-3.4,2
		c-0.7-0.4-1.2-1.2-1.2-2V35.9v-0.1v-0.1v-2.6l2.3-1.3l0.2-0.1L38,24.3c0.7-0.4,1.5-0.4,2.2,0c1.6,0.9,1.6,3.1,0,4L29.4,34.3z"/>
</g>
</svg>
