<?xml version="1.0" encoding="utf-8"?>
<!-- Generator: Adobe Illustrator 25.2.3, SVG Export Plug-In . SVG Version: 6.00 Build 0)  -->
<svg version="1.1" id="Layer_1" xmlns="http://www.w3.org/2000/svg" xmlns:xlink="http://www.w3.org/1999/xlink" x="0px" y="0px"
	 viewBox="0 0 274 254" style="enable-background:new 0 0 274 254;" xml:space="preserve">
<style type="text/css">
	.st0{clip-path:url(#SVGID_2_);fill:#8C8C8C;}
	.st1{clip-path:url(#SVGID_4_);fill:#8C8C8C;}
	.st2{clip-path:url(#SVGID_6_);fill:#8C8C8C;}
	.st3{clip-path:url(#SVGID_8_);fill:#8C8C8C;}
	.st4{clip-path:url(#SVGID_10_);fill:#8C8C8C;}
	.st5{fill:#8C8C8C;}
</style>
<g>
	<g>
		<defs>
			<rect id="SVGID_1_" x="51.7" y="2" width="172.9" height="247.8"/>
		</defs>
		<clipPath id="SVGID_2_">
			<use xlink:href="#SVGID_1_"  style="overflow:visible;"/>
		</clipPath>
		<path class="st0" d="M154.2,226.7h-9.1v-13.8l1.8-1.4c0.2-0.1,15.5-11.8,15.5-25.2v-23h9.1v23c0,14.8-12.5,26.9-17.3,31V226.7z"/>
	</g>
	<g>
		<defs>
			<rect id="SVGID_3_" x="51.7" y="2" width="172.9" height="247.8"/>
		</defs>
		<clipPath id="SVGID_4_">
			<use xlink:href="#SVGID_3_"  style="overflow:visible;"/>
		</clipPath>
		<path class="st1" d="M58.6,226.7l0-86.4c0-13.5,4.9-19,13-26.4l29-23.2l5.7,7.1l-28.8,23c-7.4,6.8-9.8,9.8-9.8,19.5l0,86.4H58.6z"
			/>
	</g>
	<g>
		<defs>
			<rect id="SVGID_5_" x="51.7" y="2" width="172.9" height="247.8"/>
		</defs>
		<clipPath id="SVGID_6_">
			<use xlink:href="#SVGID_5_"  style="overflow:visible;"/>
		</clipPath>
		<polygon class="st2" points="165.7,249.8 156.6,249.8 156.6,231.3 62,231.3 62,249.8 52.9,249.8 52.9,222.2 165.7,222.2 		"/>
	</g>
	<g>
		<defs>
			<rect id="SVGID_7_" x="51.7" y="2" width="172.9" height="247.8"/>
		</defs>
		<clipPath id="SVGID_8_">
			<use xlink:href="#SVGID_7_"  style="overflow:visible;"/>
		</clipPath>
		<path class="st3" d="M109.3,202.5v-9.1c6.9,0,18.5-2.4,18.5-18.5v-19.2l15.6-15.6c6.4-8.2,2.9-20.1-2.4-24.8
			c-3.2-2.8-4.7-1.3-5.5-0.5l-46.1,46.1l-6.5-6.5l46.1-46.1c5.1-5.1,12.2-5,18,0.2c9.2,8.2,12.8,25.6,3.3,37.5l-0.3,0.4l-13.1,13.1
			v15.4C136.9,195.2,122.6,202.5,109.3,202.5z"/>
	</g>
	<g>
		<defs>
			<rect id="SVGID_9_" x="51.7" y="2" width="172.9" height="247.8"/>
		</defs>
		<clipPath id="SVGID_10_">
			<use xlink:href="#SVGID_9_"  style="overflow:visible;"/>
		</clipPath>
		<path class="st4" d="M207.3,167.9h-74.9v-9.1h74.9c3.8,0,7-3.1,7-7V19.3c0-3.8-3.1-7-7-7h-92.2c-3.8,0-7,3.1-7,7v120.4H99V19.3
			c0-8.9,7.2-16.1,16.1-16.1h92.2c8.9,0,16.1,7.2,16.1,16.1v132.5C223.3,160.7,216.1,167.9,207.3,167.9z"/>
	</g>
	<g>
		<defs>
			<rect id="SVGID_11_" x="51.7" y="2" width="172.9" height="247.8"/>
		</defs>
		<clipPath id="SVGID_12_">
			<use xlink:href="#SVGID_11_"  style="overflow:visible;"/>
		</clipPath>
	</g>
</g>
<g>
	<path class="st5" d="M170.2,35v-9c0-0.7-0.6-1.2-1.2-1.2h-8.8c-0.7,0-1.2,0.6-1.2,1.2v8.5C162.5,33.9,166.5,34.1,170.2,35z"/>
	<path class="st5" d="M158.9,96.6v8.1c0,0.7,0.6,1.2,1.2,1.2h8.8c0.7,0,1.2-0.6,1.2-1.2v-8.9c-2.3,0.7-4.9,1-7.6,1
		C161.3,96.8,160.1,96.8,158.9,96.6z"/>
	<path class="st5" d="M180.7,69.9c-1.7-2.5-4-4.4-6.8-5.8c-2.5-1.2-5.8-2.4-9.7-3.6c-4.2-1.3-7.4-2.8-9.5-4.3
		c-1.8-1.2-2.6-2.9-2.6-5.3c0-2.3,0.9-4,2.7-5.3c2.1-1.5,4.9-2.2,8.3-2.2c2.3,0,4.5,0.5,6.7,1.4c2.1,0.9,3.8,2.1,5.1,3.7
		c1.7,1.7,4.5,1.6,6.3-0.2c1.3-1.2,1.5-2.5,1.5-3.3c0-1.2-0.6-2.5-1.7-3.8c-2-2.3-4.6-4.1-7.8-5.4c-1-0.4-2-0.7-3.1-0.9
		c-3.7-0.9-7.6-1.1-11.3-0.5c-2.2,0.3-4.3,0.9-6.2,1.8c-3.1,1.4-5.6,3.4-7.4,6c-1.8,2.6-2.7,5.6-2.7,8.9c0,3.6,0.9,6.7,2.6,9.2
		c1.7,2.4,3.8,4.3,6.5,5.7c2.5,1.3,5.5,2.5,9,3.5c3.1,1,5.6,2,7.6,2.9c1.7,0.8,3.1,1.9,4.2,3.1c0.9,1.1,1.4,2.5,1.4,4.3
		c0,2.2-0.9,3.9-2.9,5.3c-2.1,1.5-4.9,2.3-8.3,2.3c-5.7,0-10.3-2-14.1-6.3c-1.9-2-4.9-1.9-6.8,0c-0.9,1-1.4,2.1-1.4,3.4
		c0,1.4,0.6,2.7,1.7,3.6c3,2.9,6.1,5.1,9.4,6.5c2.3,1,4.8,1.6,7.6,1.9c1.2,0.1,2.4,0.2,3.6,0.2c2.7,0,5.3-0.4,7.6-1
		c1-0.3,2-0.7,3-1.1c3.2-1.5,5.7-3.5,7.5-6c1.9-2.6,2.8-5.6,2.8-8.8C183.5,75.8,182.6,72.5,180.7,69.9z"/>
</g>
</svg>
