<?xml version="1.0" encoding="utf-8"?>
<!-- Generator: Adobe Illustrator 16.0.0, SVG Export Plug-In . SVG Version: 6.00 Build 0)  -->
<!DOCTYPE svg PUBLIC "-//W3C//DTD SVG 1.1//EN" "http://www.w3.org/Graphics/SVG/1.1/DTD/svg11.dtd">
<svg version="1.1" id="Layer_1" xmlns="http://www.w3.org/2000/svg" xmlns:xlink="http://www.w3.org/1999/xlink" x="0px" y="0px"
	 width="179.942px" height="198.179px" viewBox="0 0 179.942 198.179" enable-background="new 0 0 179.942 198.179"
	 xml:space="preserve">
<g>
	<defs>
		<rect id="SVGID_1_" width="179.942" height="198.179"/>
	</defs>
	<clipPath id="SVGID_2_">
		<use xlink:href="#SVGID_1_"  overflow="visible"/>
	</clipPath>
	<path clip-path="url(#SVGID_2_)" fill-rule="evenodd" clip-rule="evenodd" fill="#8C8C8C" d="M176.949,126.417
		c-0.427,12.295-5.5,23.512-13.55,31.562c-7.905,7.907-18.688,12.78-30.785,12.677l-55.02-0.479v23.558
		c0,1.351-1.095,2.445-2.445,2.445c-0.577,0-1.107-0.2-1.525-0.535L3.081,148.148c-1.117-0.748-1.417-2.263-0.669-3.38
		c0.185-0.276,0.417-0.502,0.679-0.676l70.704-47.591c1.117-0.748,2.631-0.448,3.379,0.669c0.279,0.416,0.412,0.888,0.412,1.356
		h0.009v23.642h42.438c8.884,0,21.912-2.748,33.133-7.345c9.102-3.729,16.919-8.613,20.089-14.104
		c0.674-1.165,2.168-1.563,3.333-0.888c0.846,0.489,1.289,1.41,1.208,2.325L176.949,126.417z M2.992,71.764L2.146,96.023
		c-0.081,0.916,0.361,1.836,1.208,2.326c1.164,0.675,2.658,0.277,3.333-0.889c3.17-5.489,10.987-10.375,20.089-14.105
		c11.22-4.597,24.249-7.344,33.132-7.344h42.439v23.642h0.008c0,0.469,0.134,0.939,0.412,1.356c0.748,1.117,2.263,1.417,3.38,0.669
		l70.705-47.591c0.262-0.174,0.494-0.4,0.679-0.676c0.748-1.118,0.448-2.632-0.669-3.38L106.316,2.536
		C105.898,2.2,105.368,2,104.792,2c-1.351,0-2.445,1.095-2.445,2.445v23.557l-55.02-0.478c-12.095-0.105-22.879,4.77-30.784,12.675
		C8.49,48.252,3.419,59.468,2.992,71.764 M20,43.656C12.787,50.869,8.244,60.911,7.862,71.918l-0.606,17.35
		c4.467-4.059,10.756-7.59,17.666-10.421c11.803-4.836,25.565-7.725,34.986-7.725h44.884c1.349,0,2.443,1.095,2.443,2.444v21.505
		l63.907-43.016L107.235,9.027v21.432h-0.01v0.02c-0.01,1.344-1.109,2.425-2.454,2.415l-57.484-0.5
		C36.584,32.301,27.021,36.634,20,43.656 M159.942,154.522c7.212-7.213,11.756-17.254,12.138-28.261l0.604-17.351
		c-4.467,4.06-10.756,7.59-17.666,10.421c-11.802,4.836-25.563,7.725-34.985,7.725H75.149c-1.35,0-2.445-1.096-2.445-2.445v-21.503
		L8.799,146.125l63.906,43.027v-21.433h0.01v-0.02c0.01-1.345,1.11-2.425,2.455-2.415l57.485,0.5
		C143.356,165.877,152.919,161.546,159.942,154.522"/>
	<path clip-path="url(#SVGID_2_)" fill="none" stroke="#8C8C8C" stroke-width="4" stroke-miterlimit="10" d="M176.949,126.417
		c-0.427,12.295-5.5,23.512-13.55,31.562c-7.905,7.907-18.688,12.78-30.785,12.677l-55.02-0.479v23.558
		c0,1.351-1.095,2.445-2.445,2.445c-0.577,0-1.107-0.2-1.525-0.535L3.081,148.148c-1.117-0.748-1.417-2.263-0.669-3.38
		c0.185-0.276,0.417-0.502,0.679-0.676l70.704-47.591c1.117-0.748,2.631-0.448,3.379,0.669c0.279,0.416,0.412,0.888,0.412,1.356
		h0.009v23.642h42.438c8.884,0,21.912-2.748,33.133-7.345c9.102-3.729,16.919-8.613,20.089-14.104
		c0.674-1.165,2.168-1.563,3.333-0.888c0.846,0.489,1.289,1.41,1.208,2.325L176.949,126.417z M2.992,71.764L2.146,96.023
		c-0.081,0.916,0.361,1.836,1.208,2.326c1.164,0.675,2.658,0.277,3.333-0.889c3.17-5.489,10.987-10.375,20.089-14.105
		c11.22-4.597,24.249-7.344,33.132-7.344h42.439v23.642h0.008c0,0.469,0.134,0.939,0.412,1.356c0.748,1.117,2.263,1.417,3.38,0.669
		l70.705-47.591c0.262-0.174,0.494-0.4,0.679-0.676c0.748-1.118,0.448-2.632-0.669-3.38L106.316,2.536
		C105.898,2.2,105.368,2,104.792,2c-1.351,0-2.445,1.095-2.445,2.445v23.557l-55.02-0.478c-12.095-0.105-22.879,4.77-30.784,12.675
		C8.49,48.252,3.419,59.468,2.992,71.764z M20,43.656C12.787,50.869,8.244,60.911,7.862,71.918l-0.606,17.35
		c4.467-4.059,10.756-7.59,17.666-10.421c11.803-4.836,25.565-7.725,34.986-7.725h44.884c1.349,0,2.443,1.095,2.443,2.444v21.505
		l63.907-43.016L107.235,9.027v21.432h-0.01v0.02c-0.01,1.344-1.109,2.425-2.454,2.415l-57.484-0.5
		C36.584,32.301,27.021,36.634,20,43.656z M159.942,154.522c7.212-7.213,11.756-17.254,12.138-28.261l0.604-17.351
		c-4.467,4.06-10.756,7.59-17.666,10.421c-11.802,4.836-25.563,7.725-34.985,7.725H75.149c-1.35,0-2.445-1.096-2.445-2.445v-21.503
		L8.799,146.125l63.906,43.027v-21.433h0.01v-0.02c0.01-1.345,1.11-2.425,2.455-2.415l57.485,0.5
		C143.356,165.877,152.919,161.546,159.942,154.522z"/>
</g>
</svg>
