<?xml version="1.0" encoding="utf-8"?>
<!-- Generator: Adobe Illustrator 16.0.0, SVG Export Plug-In . SVG Version: 6.00 Build 0)  -->
<!DOCTYPE svg PUBLIC "-//W3C//DTD SVG 1.1//EN" "http://www.w3.org/Graphics/SVG/1.1/DTD/svg11.dtd">
<svg version="1.1" id="Layer_1" xmlns="http://www.w3.org/2000/svg" xmlns:xlink="http://www.w3.org/1999/xlink" x="0px" y="0px"
	 width="118.79px" height="84px" viewBox="0 0 118.79 84" enable-background="new 0 0 118.79 84" xml:space="preserve">
<g>
	<defs>
		<rect id="SVGID_1_" y="0" width="118.79" height="84"/>
	</defs>
	<clipPath id="SVGID_2_">
		<use xlink:href="#SVGID_1_"  overflow="visible"/>
	</clipPath>
	<path clip-path="url(#SVGID_2_)" fill="#8C8C8C" d="M111.04,0H7.75C3.477,0,0,3.477,0,7.75v68.5C0,80.523,3.477,84,7.75,84h103.29
		c4.273,0,7.75-3.478,7.75-7.75V7.75C118.79,3.477,115.313,0,111.04,0 M108.287,6L60.692,53.16c-0.715,0.71-1.879,0.708-2.595,0
		L10.504,6H108.287z M6,73.14V9.983l30.139,29.865L6,73.14z M9.692,78l30.712-33.926l13.469,13.347
		c1.522,1.509,3.522,2.263,5.522,2.263c1.999,0,3.999-0.754,5.521-2.263l13.26-13.139L109.047,78H9.692z M112.79,73.203
		L82.441,40.056L112.79,9.984V73.203z"/>
</g>
</svg>
