<?xml version="1.0" encoding="UTF-8"?>
<svg id="Layer_1" data-name="Layer 1" xmlns="http://www.w3.org/2000/svg" viewBox="0 0 151.86 132.9">
  <defs>
    <style>
      .cls-1 {
        fill: #4d4d4d;
      }
    </style>
  </defs>
  <path class="cls-1" d="m151.86,14.12c0-1.05-.23-2.73-.51-3.73v-.02C149.5,3.79,144.58,0,137.77,0,104.65,0,71.54,0,38.43,0c-3.12,0-5.23,1.95-5.21,4.79.02,2.81,2.14,4.69,5.31,4.69,32.57,0,65.14,0,97.71,0,.49,0,.99-.01,1.48,0,2.76.11,4.17,1.34,4.58,4.08.1.68.08,1.38.08,2.07,0,26.3.01,52.59-.01,78.89,0,2.16.83,3.76,2.73,4.69,1.68.83,3.43.7,4.86-.53.13-.11.26-.24.37-.37,1.05-1.17,1.54-2.74,1.54-4.31,0-26.63,0-53.26,0-79.88Z"/>
  <path class="cls-1" d="m66.29,18.99c17.55,0,35.09-.01,52.64,0,6.48,0,11.96,4.17,13.48,10.2.3,1.18.45,2.44.45,3.66.02,28.62.03,57.24.01,85.87,0,8.28-5.94,14.18-14.23,14.18-34.75,0-69.49,0-104.24,0-8.49,0-14.4-5.88-14.4-14.31C0,90.11,0,61.64,0,33.17c0-6.61,4.08-12.15,10.13-13.68,1.37-.35,2.83-.47,4.25-.48,17.3-.03,34.6-.02,51.9-.02ZM9.48,94.93c2.85-.1,5.37-.65,7.56-2.06,3.23-2.09,6.37-4.32,9.51-6.55,10.67-7.55,21.42-7.6,32.15-.11,2.67,1.87,5.27,3.84,7.96,5.68,4.77,3.26,9.97,3.8,15.41,2.1,4.05-1.26,7.14-3.94,9.88-7.06,3.2-3.64,6.25-7.4,9.55-10.94,4.42-4.73,9.78-7.97,16.25-9.08,1.83-.31,3.69-.42,5.52-.62.04-.07.08-.11.08-.15.01-11.07.05-22.14,0-33.21-.01-2.56-1.28-3.86-3.81-4.33-.72-.13-1.47-.13-2.21-.13-34,0-68,0-102,0-.69,0-1.39,0-2.07.1-1.97.3-3.24,1.38-3.56,3.4-.12.73-.21,1.47-.21,2.2-.01,19.72,0,39.44,0,59.17v1.59Z"/>
  <path class="cls-1" d="m47.45,52.28c-.01,7.85-6.38,14.17-14.26,14.17-7.91,0-14.23-6.4-14.2-14.38.03-7.82,6.44-14.11,14.34-14.09,7.84.02,14.14,6.4,14.12,14.3Z"/>
</svg>