<?xml version="1.0" encoding="utf-8"?>
<!-- Generator: Adobe Illustrator 25.4.1, SVG Export Plug-In . SVG Version: 6.00 Build 0)  -->
<svg version="1.1" id="Layer_1" xmlns="http://www.w3.org/2000/svg" xmlns:xlink="http://www.w3.org/1999/xlink" x="0px" y="0px"
	 viewBox="0 0 26.6 18.6" style="enable-background:new 0 0 26.6 18.6;" xml:space="preserve">
<style type="text/css">
	.st0{fill:#616265;}
</style>
<rect x="12.8" y="14.1" class="st0" width="0.7" height="4.1"/>
<path class="st0" d="M16.7,18.4H9.5c-0.2,0-0.3-0.1-0.3-0.3V18c0-0.2,0.1-0.3,0.3-0.3h7.2c0.2,0,0.3,0.1,0.3,0.3l0,0
	C17,18.2,16.9,18.4,16.7,18.4z"/>
<g>
	<g>
		<path class="st0" d="M11.5,15H2.9c-1.1,0-2-0.9-2-2V2.2c0-1.1,0.9-2,2-2h8.7c1.1,0,2,0.9,2,2V13C13.5,14.1,12.6,15,11.5,15z
			 M2.9,0.9c-0.7,0-1.2,0.6-1.2,1.2V13c0,0.7,0.6,1.2,1.2,1.2h8.7c0.7,0,1.2-0.6,1.2-1.2V2.2c0-0.7-0.6-1.2-1.2-1.2H2.9z"/>
	</g>
</g>
<g>
	<g>
		<path class="st0" d="M23.4,15h-8.7c-1.1,0-2-0.9-2-2V2.2c0-1.1,0.9-2,2-2h8.7c1.1,0,2,0.9,2,2V13C25.4,14.1,24.5,15,23.4,15z
			 M14.8,0.9c-0.7,0-1.2,0.6-1.2,1.2V13c0,0.7,0.6,1.2,1.2,1.2h8.7c0.7,0,1.2-0.6,1.2-1.2V2.2c0-0.7-0.6-1.2-1.2-1.2H14.8z"/>
	</g>
</g>
</svg>
