<svg version="1.1" id="Layer_2" xmlns="http://www.w3.org/2000/svg" xmlns:xlink="http://www.w3.org/1999/xlink" viewBox="0 0 38 38">
<style type="text/css">
	.st0{fill:#8C8C8C;}
</style>
<path class="st0" d="M28.25,36.32c-6.12,0-13.58-4.66-18.03-9.11c-4.58-4.58-9.38-12.35-9.1-18.56C1.24,5.93,2.31,3.72,4.3,2.06
	C5.75,0.86,8.95,1.07,9.31,1.1c0.23,0.02,0.43,0.16,0.52,0.37c1.81,4.24,3.97,9.43,3.97,10.07c0,0.22,0,0.91-3.01,3.92
	c-0.02,0.02-0.05,0.04-0.07,0.06c-0.06,0.05-0.39,0.39,0.15,1.2c0.04,0.05,0.06,0.11,0.08,0.17c0.5,1.74,7.98,9.25,9.54,9.57
	c0.08,0.02,0.15,0.05,0.22,0.09c0.81,0.54,1.15,0.21,1.21,0.14c0.01-0.01,0.04-0.05,0.05-0.06c3.01-3.01,3.69-3.01,3.92-3.01
	c0.64,0,5.83,2.16,10.07,3.96c0.21,0.09,0.36,0.29,0.37,0.52c0.03,0.36,0.24,3.56-0.97,5.01c-1.65,1.99-3.87,3.06-6.58,3.18
	C28.6,36.32,28.42,36.32,28.25,36.32z M8.43,2.3c-1.07,0-2.65,0.13-3.34,0.71C3.38,4.44,2.46,6.35,2.35,8.7
	c-0.29,6.24,5.07,13.96,8.74,17.63c3.57,3.57,11,8.75,17.15,8.75c0.16,0,0.32,0,0.48-0.01c2.35-0.11,4.26-1.03,5.69-2.74
	c0.66-0.79,0.74-2.75,0.7-3.75c-4.01-1.71-8.42-3.51-9.21-3.7c-0.46,0.2-1.9,1.47-3.04,2.61c-0.37,0.47-1.37,1.03-2.76,0.16
	c-2.33-0.71-9.55-8.21-10.31-10.31c-0.89-1.4-0.32-2.4,0.15-2.78c1.14-1.15,2.43-2.61,2.61-3.05c-0.15-0.65-1.98-5.13-3.71-9.2
	C8.72,2.31,8.58,2.3,8.43,2.3z" stroke="#8C8C8C" stroke-width="1px"/>
</svg>
