<?xml version="1.0" encoding="utf-8"?>
<!-- Generator: Adobe Illustrator 25.2.3, SVG Export Plug-In . SVG Version: 6.00 Build 0)  -->
<svg version="1.1" id="Layer_1" xmlns="http://www.w3.org/2000/svg" xmlns:xlink="http://www.w3.org/1999/xlink" x="0px" y="0px"
	 viewBox="0 0 274 254" style="enable-background:new 0 0 274 254;" xml:space="preserve">
<style type="text/css">
	.st0{fill:#8C8C8C;}
</style>
<g id="Layer_2_1_">
</g>
<g id="Layer_1_1_">
	<g>
		<path class="st0" d="M256.5,122.9c-2.9,0-5.3,2.4-5.3,5.3c0,62.9-51.2,114.1-114.2,114.1c0,0,0,0-0.1,0
			c-63,0-114.1-51.3-114.1-114.2C22.9,65,74.1,13.9,137,13.9c0,0,0,0,0.1,0c29.8,0,58.9,12,80.1,32.8l-9.3-0.4l0,0
			c-1.4,0-2.7,0.5-3.7,1.5s-1.5,2.3-1.5,3.7c0,2.9,2.4,5.3,5.2,5.3l21.9,0.9l0,0c0.7,0,1.3-0.1,2-0.4l0.5-0.3
			c0.9-0.6,1.6-1.3,2.2-2.2l0.1-0.1v-0.1c0-0.2,0-0.5,0-0.7c0.1-0.3,0.2-0.6,0.2-0.9l1.9-21.8c0.1-1.4-0.3-2.8-1.2-3.8
			c-0.9-1.1-2.2-1.7-3.6-1.9c-2.9-0.2-5.5,1.9-5.7,4.8l-0.9,9.7c-23.2-23.2-54.1-36.1-87-36.4c-0.3,0-0.7,0-1,0
			c-32.9,0-63.8,12.7-87.3,35.8c-49.1,48-49.7,127-1.5,175.9c23.3,23.7,54.5,36.9,87.7,37.2c0.3,0,0.7,0,1,0
			c32.9,0,63.8-12.7,87.3-35.8c23.6-23.2,37.1-55.5,37.2-88.6C261.7,125.2,259.3,122.9,256.5,122.9z"/>
	</g>
</g>
<path class="st0" d="M69,157.5c0,1.7,0.9,3.3,2.4,4.1l62.2,35.9c0.1,0.1,0.2,0.1,0.4,0.1c0.1,0.1,0.3,0.1,0.4,0.2
	c0.5,0.2,1.1,0.3,1.6,0.3c0.6,0,1.1-0.1,1.6-0.3c0.1,0,0.3-0.1,0.4-0.2c0.1-0.1,0.2-0.1,0.4-0.1l62.2-35.9c1.5-0.9,2.4-2.4,2.4-4.1
	V97c0-0.1,0-0.3-0.1-0.4c0-0.1,0-0.3-0.1-0.4c-0.1-0.6-0.3-1.1-0.5-1.6c0,0,0,0,0,0c0,0,0,0,0,0c-0.3-0.5-0.7-0.9-1.1-1.2
	c-0.1-0.1-0.2-0.2-0.3-0.3c-0.1-0.1-0.2-0.2-0.3-0.2L138.4,57c-1.5-0.9-3.3-0.9-4.8,0L71.4,92.9c-0.1,0.1-0.2,0.2-0.3,0.2
	c-0.1,0.1-0.2,0.2-0.4,0.3c-0.4,0.4-0.8,0.8-1.1,1.2c0,0,0,0,0,0c0,0,0,0,0,0c-0.3,0.5-0.4,1-0.5,1.6c0,0.1,0,0.3-0.1,0.4
	c0,0.1-0.1,0.3-0.1,0.4V157.5z M78.6,105.3l52.7,30.4v49.4l-52.7-30.4V105.3z M104.9,84.6l52.7,30.4L136,127.4L83.3,97L104.9,84.6z
	 M140.8,185.2v-49.4l28.7-16.6c0,0,0,0,0,0l24-13.8v49.4L140.8,185.2z M136,66.6L188.7,97l-21.6,12.4l-52.7-30.4L136,66.6z"/>
</svg>
