<?xml version="1.0" encoding="utf-8"?>
<!-- Generator: Adobe Illustrator 16.0.0, SVG Export Plug-In . SVG Version: 6.00 Build 0)  -->
<!DOCTYPE svg PUBLIC "-//W3C//DTD SVG 1.1//EN" "http://www.w3.org/Graphics/SVG/1.1/DTD/svg11.dtd">
<svg version="1.1" id="Layer_1" xmlns="http://www.w3.org/2000/svg" xmlns:xlink="http://www.w3.org/1999/xlink" x="0px" y="0px"
	 width="940.932px" height="493.695px" viewBox="0 0 940.932 493.695" enable-background="new 0 0 940.932 493.695"
	 xml:space="preserve">
<g>
	<defs>
		<rect id="SVGID_1_" width="940.932" height="493.695"/>
	</defs>
	<clipPath id="SVGID_2_">
		<use xlink:href="#SVGID_1_"  overflow="visible"/>
	</clipPath>
	<path clip-path="url(#SVGID_2_)" fill="#8C8C8C" d="M936.133,291.037c-0.965-5.09-4.437-9.291-9.091-11.257
		c-4.733-4.573-10.204-8.748-15.407-12.713c-3.475-2.648-8.538-6.509-10.521-8.589c-1.425-5.527-4.602-18.673-7.945-32.503
		c-5.12-21.184-10.926-45.197-14.069-57.052c-7.238-27.302-31.875-34.515-43.89-34.515H689.979V1H166.352v94.319h30.658V31.658
		h462.312v102.75v207.935H432.567H197.01h-30.658V373h94.397c-9.41,9.256-16.207,21.151-19.201,34.474h-75.709v30.657h75.71
		c7.008,31.188,34.907,54.564,68.18,54.564c33.274,0,61.173-23.377,68.182-54.564h281.411h39.976h25.107
		c7.01,31.188,34.908,54.564,68.182,54.564s61.173-23.377,68.182-54.564h34.791c17.837,0,44.373-10.003,44.373-37.563v-95.931
		C939.932,299.702,938.499,295.201,936.133,291.037 M309.729,462.039c-21.635,0-39.237-17.602-39.237-39.237
		c0-21.637,17.602-39.239,39.237-39.239c21.636,0,39.239,17.603,39.239,39.239C348.968,444.437,331.365,462.039,309.729,462.039
		 M377.911,407.473c-2.993-13.322-9.79-25.218-19.201-34.474h300.611v34.474H377.911z M792.586,462.039
		c-21.635,0-39.238-17.602-39.238-39.237c0-21.637,17.604-39.239,39.238-39.239c21.636,0,39.238,17.603,39.238,39.239
		C831.824,444.437,814.222,462.039,792.586,462.039 M905.055,405.527c-3.692,1.523-8.132,1.919-9.575,1.946h-34.712
		c-7.008-31.189-34.907-54.569-68.182-54.569c-33.273,0-61.173,23.38-68.183,54.569h-25.106h-9.317V373V165.065h145.229
		c0.455,0,11.186,0.133,14.258,11.716c3.057,11.528,8.818,35.366,13.902,56.396c4.123,17.063,7.383,30.543,8.6,35.008
		c1.053,3.86,3.148,7.209,6.001,10.393H775.035c-8.466,0-15.328,6.862-15.328,15.329c0,8.465,6.862,15.328,15.328,15.328h134.238
		v48.877h-23.671v30.658h23.671v11.797C909.273,402.293,909.273,403.784,905.055,405.527"/>
	<path clip-path="url(#SVGID_2_)" fill="none" stroke="#FFFFFF" stroke-width="2" stroke-miterlimit="10" d="M936.133,291.037
		c-0.965-5.09-4.437-9.291-9.091-11.257c-4.733-4.573-10.204-8.748-15.407-12.713c-3.475-2.648-8.538-6.509-10.521-8.589
		c-1.425-5.527-4.602-18.673-7.945-32.503c-5.12-21.184-10.926-45.197-14.069-57.052c-7.238-27.302-31.875-34.515-43.89-34.515
		H689.979V1H166.352v94.319h30.658V31.658h462.312v102.75v207.935H432.567H197.01h-30.658V373h94.397
		c-9.41,9.256-16.207,21.151-19.201,34.474h-75.709v30.657h75.71c7.008,31.188,34.907,54.564,68.18,54.564
		c33.274,0,61.173-23.377,68.182-54.564h281.411h39.976h25.107c7.01,31.188,34.908,54.564,68.182,54.564
		s61.173-23.377,68.182-54.564h34.791c17.837,0,44.373-10.003,44.373-37.563v-95.931
		C939.932,299.702,938.499,295.201,936.133,291.037z M309.729,462.039c-21.635,0-39.237-17.602-39.237-39.237
		c0-21.637,17.602-39.239,39.237-39.239c21.636,0,39.239,17.603,39.239,39.239C348.968,444.437,331.365,462.039,309.729,462.039z
		 M377.911,407.473c-2.993-13.322-9.79-25.218-19.201-34.474h300.611v34.474H377.911z M792.586,462.039
		c-21.635,0-39.238-17.602-39.238-39.237c0-21.637,17.604-39.239,39.238-39.239c21.636,0,39.238,17.603,39.238,39.239
		C831.824,444.437,814.222,462.039,792.586,462.039z M905.055,405.527c-3.692,1.523-8.132,1.919-9.575,1.946h-34.712
		c-7.008-31.189-34.907-54.569-68.182-54.569c-33.273,0-61.173,23.38-68.183,54.569h-25.106h-9.317V373V165.065h145.229
		c0.455,0,11.186,0.133,14.258,11.716c3.057,11.528,8.818,35.366,13.902,56.396c4.123,17.063,7.383,30.543,8.6,35.008
		c1.053,3.86,3.148,7.209,6.001,10.393H775.035c-8.466,0-15.328,6.862-15.328,15.329c0,8.465,6.862,15.328,15.328,15.328h134.238
		v48.877h-23.671v30.658h23.671v11.797C909.273,402.293,909.273,403.784,905.055,405.527z"/>
	<path clip-path="url(#SVGID_2_)" fill="#8C8C8C" d="M76.762,157.439H318.5c8.466,0,15.328-6.863,15.328-15.328
		c0-8.467-6.862-15.329-15.328-15.329H76.762c-8.467,0-15.329,6.862-15.329,15.329C61.433,150.576,68.295,157.439,76.762,157.439"/>
	<path clip-path="url(#SVGID_2_)" fill="none" stroke="#FFFFFF" stroke-width="2" stroke-miterlimit="10" d="M76.762,157.439H318.5
		c8.466,0,15.328-6.863,15.328-15.328c0-8.467-6.862-15.329-15.328-15.329H76.762c-8.467,0-15.329,6.862-15.329,15.329
		C61.433,150.576,68.295,157.439,76.762,157.439z"/>
	<path clip-path="url(#SVGID_2_)" fill="#8C8C8C" d="M413.614,218.386c0-8.466-6.863-15.328-15.329-15.328H16.329
		C7.863,203.058,1,209.92,1,218.386s6.863,15.328,15.329,15.328h381.956C406.751,233.714,413.614,226.852,413.614,218.386"/>
	<path clip-path="url(#SVGID_2_)" fill="none" stroke="#FFFFFF" stroke-width="2" stroke-miterlimit="10" d="M413.614,218.386
		c0-8.466-6.863-15.328-15.329-15.328H16.329C7.863,203.058,1,209.92,1,218.386s6.863,15.328,15.329,15.328h381.956
		C406.751,233.714,413.614,226.852,413.614,218.386z"/>
	<path clip-path="url(#SVGID_2_)" fill="#8C8C8C" d="M263.353,294.664c0-8.466-6.863-15.328-15.329-15.328H96.117
		c-8.467,0-15.329,6.862-15.329,15.328s6.862,15.328,15.329,15.328h151.907C256.489,309.992,263.353,303.129,263.353,294.664"/>
	<path clip-path="url(#SVGID_2_)" fill="none" stroke="#FFFFFF" stroke-width="2" stroke-miterlimit="10" d="M263.353,294.664
		c0-8.466-6.863-15.328-15.329-15.328H96.117c-8.467,0-15.329,6.862-15.329,15.328s6.862,15.328,15.329,15.328h151.907
		C256.489,309.992,263.353,303.129,263.353,294.664z"/>
</g>
</svg>
