<?xml version="1.0" encoding="utf-8"?>
<!-- Generator: Adobe Illustrator 27.5.0, SVG Export Plug-In . SVG Version: 6.00 Build 0)  -->
<svg version="1.1" id="Layer_1" xmlns="http://www.w3.org/2000/svg" xmlns:xlink="http://www.w3.org/1999/xlink" x="0px" y="0px"
	 viewBox="0 0 13 18" style="enable-background:new 0 0 13 18;" xml:space="preserve">
<style type="text/css">
	.st0{fill:#616265;}
</style>
<rect x="6.3" y="13.9" class="st0" width="0.6" height="3.6"/>
<path class="st0" d="M10,17.6H3.2c-0.2,0-0.3-0.1-0.3-0.3v-0.1c0-0.2,0.1-0.3,0.3-0.3H10c0.2,0,0.3,0.1,0.3,0.3v0.1
	C10.3,17.5,10.2,17.6,10,17.6z"/>
<g>
	<path class="st0" d="M11,0.4H2.1c-0.8,0-1.5,0.7-1.5,1.5v11c0,0.8,0.7,1.5,1.5,1.5H11c0.8,0,1.5-0.7,1.5-1.5v-11
		C12.5,1,11.8,0.4,11,0.4z M11.9,12.9c0,0.5-0.4,0.8-0.8,0.8H2.2c-0.5,0-0.8-0.4-0.8-0.8v-11c0-0.5,0.4-0.8,0.8-0.8h8.9
		c0.5,0,0.8,0.4,0.8,0.8V12.9z"/>
</g>
</svg>
