<?xml version="1.0" encoding="utf-8"?>
<!-- Generator: Adobe Illustrator 25.2.3, SVG Export Plug-In . SVG Version: 6.00 Build 0)  -->
<svg version="1.1" xmlns="http://www.w3.org/2000/svg" xmlns:xlink="http://www.w3.org/1999/xlink" x="0px" y="0px"
	 viewBox="0 0 274 254" style="enable-background:new 0 0 274 254;" xml:space="preserve">
<style type="text/css">
	.st0{fill:none;}
	.st1{fill:#8C8C8C;}
</style>
<g id="Layer_2">
</g>
<g id="Layer_1">
	<g>
		<path class="st0" d="M137.4,15.9c-29.3,0-53.1,9.3-70.7,27.8C51,60.2,43.5,81,41.7,95.4c2.1-0.3,4.2-0.5,6.3-0.5h3
			c8.3-38.9,43-67.1,82.9-67.1h7.2c39.9,0,74.6,28.2,82.9,67.1h3c2.1,0,4.2,0.2,6.3,0.5c-1.8-14.4-9.3-35.2-25.1-51.7
			C190.5,25.3,166.8,15.9,137.4,15.9z"/>
		<path class="st0" d="M149.7,192.3h-26.4c-1.8,0-3.2,1.4-3.2,3.2v5.1c0,1.8,1.4,3.2,3.2,3.2h26.4c1.8,0,3.2-1.4,3.2-3.2v-5.1
			C152.9,193.8,151.5,192.3,149.7,192.3z"/>
		<path class="st0" d="M226.9,108.8h-1.1v59.9h1.1c11.5,0,21.3-6.5,21.3-14.2V123C248.1,115.3,238.4,108.8,226.9,108.8z"/>
		<path class="st0" d="M211.9,112.6c0-39.1-31.8-70.9-70.9-70.9h-7.2C94.8,41.7,63,73.5,63,112.6v51.3c0,19.3,8.3,37.9,23.4,52.5
			c14.5,14,33.1,22,51.1,22c18.2,0,36.8-8,51.2-22c5.3-5.1,9.7-10.8,13.3-16.9c-7.3,3.6-16.1,5.5-26.2,5.5h-9.6
			c-2,7.4-8.8,12.7-16.5,12.7h-26.4c-9.4,0-17.1-7.6-17.1-17.1v-5.1c0-9.4,7.6-17.1,17.1-17.1h26.4c7.7,0,14.5,5.3,16.5,12.7h9.6
			c24,0,36.1-12,36.1-35.7V112.6z"/>
		<path class="st0" d="M26.7,123v31.6c0,7.7,9.7,14.2,21.3,14.2h1.1v-59.9H48C36.5,108.8,26.7,115.3,26.7,123z"/>
		<path class="st1" d="M247.5,100.3c-0.5-17-8.4-44.2-29.3-66.2c-20-21-47.9-32.1-80.7-32.1S76.7,13.2,56.7,34.1
			c-20.9,22-28.9,49.2-29.3,66.2c-9.1,5.3-14.5,13.7-14.5,22.7v31.6c0,15.5,15.8,28,35.1,28h3.3c3.8,16.3,12.6,31.4,25.5,43.8
			c17,16.4,39.1,25.9,60.7,25.9c21.7,0,43.9-9.4,60.9-25.9c12.8-12.4,21.5-27.5,25.3-43.8h3.3c19.4,0,35.1-12.6,35.1-28V123
			C262,114,256.6,105.6,247.5,100.3z M248.1,123v31.6c0,7.7-9.7,14.2-21.3,14.2h-1.1v-59.9h1.1C238.4,108.8,248.1,115.3,248.1,123z
			 M233.2,95.4c-2.1-0.3-4.2-0.5-6.3-0.5h-3c-8.3-38.9-43-67.1-82.9-67.1h-7.2C94,27.9,59.2,56,51,95h-3c-2.1,0-4.2,0.2-6.3,0.5
			C43.5,81,51,60.2,66.8,43.7c17.6-18.4,41.4-27.8,70.7-27.8c29.3,0,53.1,9.3,70.7,27.8C223.9,60.2,231.3,81,233.2,95.4z
			 M152.9,195.5v5.1c0,1.8-1.4,3.2-3.2,3.2h-26.4c-1.8,0-3.2-1.4-3.2-3.2v-5.1c0-1.8,1.4-3.2,3.2-3.2h26.4
			C151.5,192.3,152.9,193.8,152.9,195.5z M175.8,191.1h-9.6c-2-7.4-8.8-12.7-16.5-12.7h-26.4c-9.4,0-17.1,7.6-17.1,17.1v5.1
			c0,9.4,7.6,17.1,17.1,17.1h26.4c7.7,0,14.5-5.3,16.5-12.7h9.6c10.1,0,18.9-1.8,26.2-5.5c-3.6,6.1-8.1,11.8-13.3,16.9
			c-14.4,14-33.1,22-51.2,22c-18,0-36.6-8-51.1-22C71.3,201.9,63,183.2,63,163.9v-51.3c0-39.1,31.8-70.9,70.9-70.9h7.2
			c39.1,0,70.9,31.8,70.9,70.9v42.8C211.9,179.1,199.7,191.1,175.8,191.1z M49.1,108.8v59.9H48c-11.5,0-21.3-6.5-21.3-14.2V123
			c0-7.7,9.7-14.2,21.3-14.2H49.1z"/>
	</g>
</g>
</svg>
