<?xml version="1.0" encoding="utf-8"?>
<!-- Generator: Adobe Illustrator 16.0.0, SVG Export Plug-In . SVG Version: 6.00 Build 0)  -->
<!DOCTYPE svg PUBLIC "-//W3C//DTD SVG 1.1//EN" "http://www.w3.org/Graphics/SVG/1.1/DTD/svg11.dtd">
<svg version="1.1" id="Layer_1" xmlns="http://www.w3.org/2000/svg" xmlns:xlink="http://www.w3.org/1999/xlink" x="0px" y="0px"
	 width="512.811px" height="553.741px" viewBox="0 0 512.811 553.741" enable-background="new 0 0 512.811 553.741"
	 xml:space="preserve">
<g>
	<defs>
		<rect id="SVGID_1_" width="512.813" height="553.741"/>
	</defs>
	<clipPath id="SVGID_2_">
		<use xlink:href="#SVGID_1_"  overflow="visible"/>
	</clipPath>
	<path clip-path="url(#SVGID_2_)" fill="#8C8C8C" d="M221.939,294.792l-45.374-46.11c-2.59-2.623-6.817-2.652-9.442-0.063
		l-46.214,47.185c-2.652,2.615-2.652,6.895,0,9.51l95.175,94.145c2.609,2.574,6.805,2.563,9.402-0.022L409.97,214.712
		c2.802-2.79,2.579-7.391-0.48-9.897l-47.051-40.973c-2.652-2.172-6.517-1.984-8.946,0.434L221.939,294.792z M391.37,210.653
		L220.743,381.579l-81.868-81.02l32.85-34.007l50.12,50.915l136.971-135.91L391.37,210.653z M508.81,100.588
		c-0.005-4.505-4.377-7.712-8.676-6.365l-1.729,0.542c-0.183,0.057-18.715,5.763-47.263,5.764
		c-48.836,0.002-121.219-16.141-188.723-93.063l-1.047-1.192c-2.751-3.135-7.669-3.01-10.258,0.262l-0.983,1.244
		c-60.627,76.657-134.256,92.748-185.349,92.749c-30.082,0-50.349-5.758-50.541-5.814l-1.692-0.494C8.275,92.973,4,96.179,4,100.632
		v1.763c0,86.473,13.032,163.735,38.735,229.637c20.661,52.977,49.503,98.77,85.726,136.106
		c61.938,63.845,123.318,80.605,125.901,81.288l0.354,0.093c1.168,0.309,2.396,0.295,3.557-0.04l0.351-0.102
		c2.579-0.744,63.881-18.975,125.76-83.515c36.203-37.761,65.031-83.632,85.687-136.341
		c25.706-65.597,38.741-142.014,38.741-227.127L508.81,100.588z M455.423,323.049c-19.779,50.693-47.345,94.785-81.93,131.051
		c-30.775,32.272-61.557,52.272-81.959,63.367c-15.211,8.272-27.077,12.964-33.066,15.104c-1.404,0.502-2.921,0.519-4.335,0.047
		c-5.864-1.956-17.345-6.234-32.226-13.969c-20.38-10.592-51.144-29.886-81.961-61.651c-34.73-35.799-62.421-79.8-82.304-130.779
		c-23.983-61.494-36.614-133.364-37.581-213.775c9.528,1.843,25.143,4.085,44.722,4.085c32.839-0.001,64.462-6.189,93.992-18.394
		c37.051-15.314,69.956-39.884,97.929-73.106c69.656,75.407,143.827,91.502,194.439,91.5c18.197-0.001,32.594-2.123,41.604-3.944
		C491.754,191.321,479.209,262.084,455.423,323.049"/>
	<path clip-path="url(#SVGID_2_)" fill="none" stroke="#8C8C8C" stroke-width="8" stroke-miterlimit="10" d="M221.939,294.792
		l-45.374-46.11c-2.59-2.623-6.817-2.652-9.442-0.063l-46.214,47.185c-2.652,2.615-2.652,6.895,0,9.51l95.175,94.145
		c2.609,2.574,6.805,2.563,9.402-0.022L409.97,214.712c2.802-2.79,2.579-7.391-0.48-9.897l-47.051-40.973
		c-2.652-2.172-6.517-1.984-8.946,0.434L221.939,294.792z M391.37,210.653L220.743,381.579l-81.868-81.02l32.85-34.007l50.12,50.915
		l136.971-135.91L391.37,210.653z M508.81,100.588c-0.005-4.505-4.377-7.712-8.676-6.365l-1.729,0.542
		c-0.183,0.057-18.715,5.763-47.263,5.764c-48.836,0.002-121.219-16.141-188.723-93.063l-1.047-1.192
		c-2.751-3.135-7.669-3.01-10.258,0.262l-0.983,1.244c-60.627,76.657-134.256,92.748-185.349,92.749
		c-30.082,0-50.349-5.758-50.541-5.814l-1.692-0.494C8.275,92.973,4,96.179,4,100.632v1.763c0,86.473,13.032,163.735,38.735,229.637
		c20.661,52.977,49.503,98.77,85.726,136.106c61.938,63.845,123.318,80.605,125.901,81.288l0.354,0.093
		c1.168,0.309,2.396,0.295,3.557-0.04l0.351-0.102c2.579-0.744,63.881-18.975,125.76-83.515
		c36.203-37.761,65.031-83.632,85.687-136.341c25.706-65.597,38.741-142.014,38.741-227.127L508.81,100.588z M455.423,323.049
		c-19.779,50.693-47.345,94.785-81.93,131.051c-30.775,32.272-61.557,52.272-81.959,63.367
		c-15.211,8.272-27.077,12.964-33.066,15.104c-1.404,0.502-2.921,0.519-4.335,0.047c-5.864-1.956-17.345-6.234-32.226-13.969
		c-20.38-10.592-51.144-29.886-81.961-61.651c-34.73-35.799-62.421-79.8-82.304-130.779
		c-23.983-61.494-36.614-133.364-37.581-213.775c9.528,1.843,25.143,4.085,44.722,4.085c32.839-0.001,64.462-6.189,93.992-18.394
		c37.051-15.314,69.956-39.884,97.929-73.106c69.656,75.407,143.827,91.502,194.439,91.5c18.197-0.001,32.594-2.123,41.604-3.944
		C491.754,191.321,479.209,262.084,455.423,323.049z"/>
</g>
</svg>
